<svg xmlns="http://www.w3.org/2000/svg" xmlns:xlink="http://www.w3.org/1999/xlink" width="1080" zoomAndPan="magnify" viewBox="0 0 810 1012.49997" height="1350" preserveAspectRatio="xMidYMid meet" version="1.0"><defs><g/></defs><g fill="#ffffff" fill-opacity="1"><g transform="translate(223.922831, 541.232686)"><g><path d="M 38.078125 1.015625 C 31.617188 1.015625 25.832031 -0.457031 20.71875 -3.40625 C 15.601562 -6.363281 11.578125 -10.617188 8.640625 -16.171875 C 5.703125 -21.722656 4.234375 -28.410156 4.234375 -36.234375 C 4.234375 -44.085938 5.707031 -50.796875 8.65625 -56.359375 C 11.613281 -61.929688 15.65625 -66.191406 20.78125 -69.140625 C 25.914062 -72.097656 31.679688 -73.578125 38.078125 -73.578125 C 42.234375 -73.578125 46.101562 -72.992188 49.6875 -71.828125 C 53.28125 -70.660156 56.457031 -68.957031 59.21875 -66.71875 C 61.976562 -64.476562 64.242188 -61.75 66.015625 -58.53125 C 67.785156 -55.320312 68.945312 -51.671875 69.5 -47.578125 L 54.4375 -47.578125 C 54.082031 -49.585938 53.429688 -51.390625 52.484375 -52.984375 C 51.546875 -54.578125 50.378906 -55.925781 48.984375 -57.03125 C 47.585938 -58.132812 46 -58.96875 44.21875 -59.53125 C 42.4375 -60.101562 40.488281 -60.390625 38.375 -60.390625 C 34.539062 -60.390625 31.1875 -59.429688 28.3125 -57.515625 C 25.445312 -55.597656 23.234375 -52.84375 21.671875 -49.25 C 20.109375 -45.664062 19.328125 -41.328125 19.328125 -36.234375 C 19.328125 -31.066406 20.113281 -26.6875 21.6875 -23.09375 C 23.269531 -19.507812 25.488281 -16.789062 28.34375 -14.9375 C 31.195312 -13.09375 34.539062 -12.171875 38.375 -12.171875 C 40.445312 -12.171875 42.375 -12.460938 44.15625 -13.046875 C 45.945312 -13.628906 47.546875 -14.460938 48.953125 -15.546875 C 50.367188 -16.640625 51.546875 -17.984375 52.484375 -19.578125 C 53.429688 -21.171875 54.101562 -22.972656 54.5 -24.984375 L 69.546875 -24.984375 C 69.085938 -21.441406 68.035156 -18.113281 66.390625 -15 C 64.753906 -11.882812 62.582031 -9.113281 59.875 -6.6875 C 57.164062 -4.269531 53.984375 -2.378906 50.328125 -1.015625 C 46.671875 0.335938 42.585938 1.015625 38.078125 1.015625 Z M 38.078125 1.015625 "/></g></g></g><g fill="#ffffff" fill-opacity="1"><g transform="translate(297.401246, 541.232686)"><g><path d="M 20.5 -30.875 L 20.5 0 L 5.984375 0 L 5.984375 -72.5625 L 20.3125 -72.5625 L 20.3125 -40.21875 L 18.796875 -40.21875 C 20.253906 -44.769531 22.453125 -48.296875 25.390625 -50.796875 C 28.328125 -53.296875 32.101562 -54.546875 36.71875 -54.546875 C 40.445312 -54.546875 43.707031 -53.734375 46.5 -52.109375 C 49.289062 -50.484375 51.457031 -48.144531 53 -45.09375 C 54.550781 -42.039062 55.328125 -38.375 55.328125 -34.09375 L 55.328125 0 L 40.765625 0 L 40.765625 -31.515625 C 40.765625 -34.921875 39.898438 -37.570312 38.171875 -39.46875 C 36.453125 -41.363281 34.050781 -42.3125 30.96875 -42.3125 C 28.925781 -42.3125 27.117188 -41.863281 25.546875 -40.96875 C 23.972656 -40.082031 22.738281 -38.796875 21.84375 -37.109375 C 20.945312 -35.421875 20.5 -33.34375 20.5 -30.875 Z M 20.5 -30.875 "/></g></g></g><g fill="#ffffff" fill-opacity="1"><g transform="translate(358.657605, 541.232686)"><g><path d="M 21.28125 1.015625 C 17.84375 1.015625 14.757812 0.414062 12.03125 -0.78125 C 9.300781 -1.976562 7.15625 -3.769531 5.59375 -6.15625 C 4.039062 -8.539062 3.265625 -11.503906 3.265625 -15.046875 C 3.265625 -18.066406 3.816406 -20.582031 4.921875 -22.59375 C 6.023438 -24.601562 7.535156 -26.222656 9.453125 -27.453125 C 11.367188 -28.691406 13.550781 -29.628906 16 -30.265625 C 18.445312 -30.898438 21.019531 -31.347656 23.71875 -31.609375 C 26.863281 -31.929688 29.394531 -32.226562 31.3125 -32.5 C 33.226562 -32.78125 34.625 -33.210938 35.5 -33.796875 C 36.375 -34.378906 36.8125 -35.253906 36.8125 -36.421875 L 36.8125 -36.671875 C 36.8125 -38.160156 36.476562 -39.429688 35.8125 -40.484375 C 35.144531 -41.546875 34.175781 -42.359375 32.90625 -42.921875 C 31.644531 -43.492188 30.109375 -43.78125 28.296875 -43.78125 C 26.441406 -43.78125 24.820312 -43.492188 23.4375 -42.921875 C 22.0625 -42.359375 20.941406 -41.597656 20.078125 -40.640625 C 19.222656 -39.679688 18.617188 -38.601562 18.265625 -37.40625 L 4.875 -39.109375 C 5.613281 -42.347656 7.039062 -45.117188 9.15625 -47.421875 C 11.269531 -49.734375 13.960938 -51.5 17.234375 -52.71875 C 20.515625 -53.9375 24.25 -54.546875 28.4375 -54.546875 C 31.488281 -54.546875 34.382812 -54.1875 37.125 -53.46875 C 39.875 -52.757812 42.316406 -51.65625 44.453125 -50.15625 C 46.597656 -48.664062 48.28125 -46.773438 49.5 -44.484375 C 50.71875 -42.191406 51.328125 -39.457031 51.328125 -36.28125 L 51.328125 0 L 37.453125 0 L 37.453125 -7.5 L 37.015625 -7.5 C 36.140625 -5.8125 34.976562 -4.328125 33.53125 -3.046875 C 32.082031 -1.765625 30.351562 -0.765625 28.34375 -0.046875 C 26.332031 0.660156 23.976562 1.015625 21.28125 1.015625 Z M 25.375 -9.15625 C 27.675781 -9.15625 29.6875 -9.609375 31.40625 -10.515625 C 33.125 -11.421875 34.46875 -12.632812 35.4375 -14.15625 C 36.414062 -15.6875 36.90625 -17.410156 36.90625 -19.328125 L 36.90625 -25.03125 C 36.457031 -24.769531 35.828125 -24.507812 35.015625 -24.25 C 34.203125 -23.988281 33.273438 -23.757812 32.234375 -23.5625 C 31.203125 -23.375 30.15625 -23.195312 29.09375 -23.03125 C 28.039062 -22.875 27.078125 -22.726562 26.203125 -22.59375 C 24.441406 -22.332031 22.878906 -21.914062 21.515625 -21.34375 C 20.160156 -20.78125 19.109375 -20.019531 18.359375 -19.0625 C 17.609375 -18.101562 17.234375 -16.910156 17.234375 -15.484375 C 17.234375 -14.117188 17.582031 -12.960938 18.28125 -12.015625 C 18.976562 -11.078125 19.9375 -10.363281 21.15625 -9.875 C 22.375 -9.394531 23.78125 -9.15625 25.375 -9.15625 Z M 25.375 -9.15625 "/></g></g></g><g fill="#ffffff" fill-opacity="1"><g transform="translate(415.921112, 541.232686)"><g><path d="M 20.5 -72.5625 L 20.5 0 L 5.984375 0 L 5.984375 -72.5625 Z M 20.5 -72.5625 "/></g></g></g><g fill="#ffffff" fill-opacity="1"><g transform="translate(442.410349, 541.232686)"><g><path d="M 19.140625 -15.6875 L 19.140625 -33.109375 L 21.234375 -33.109375 L 39.0625 -53.765625 L 55.953125 -53.765625 L 32.484375 -26.78125 L 29.078125 -26.78125 Z M 5.984375 0 L 5.984375 -72.5625 L 20.5 -72.5625 L 20.5 0 Z M 39.890625 0 L 23.5625 -23.515625 L 33.265625 -33.84375 L 56.984375 0 Z M 39.890625 0 "/></g></g></g><g fill="#ffffff" fill-opacity="1"><g transform="translate(500.355576, 541.232686)"><g><path d="M 5.9375 19.53125 L 8.578125 8.421875 L 11.390625 8.8125 C 13.179688 9.207031 14.75 9.273438 16.09375 9.015625 C 17.4375 8.753906 18.519531 8.144531 19.34375 7.1875 C 20.175781 6.226562 20.722656 4.90625 20.984375 3.21875 L 21.625 0.09375 L 1.3125 -53.765625 L 16.703125 -53.765625 L 25.765625 -26.15625 C 26.867188 -22.707031 27.785156 -19.253906 28.515625 -15.796875 C 29.242188 -12.335938 30.046875 -8.757812 30.921875 -5.0625 L 27.421875 -5.0625 C 28.296875 -8.757812 29.171875 -12.34375 30.046875 -15.8125 C 30.921875 -19.289062 31.910156 -22.738281 33.015625 -26.15625 L 42.421875 -53.765625 L 57.65625 -53.765625 L 34.625 6.765625 C 33.519531 9.660156 32.128906 12.144531 30.453125 14.21875 C 28.785156 16.300781 26.734375 17.890625 24.296875 18.984375 C 21.859375 20.085938 18.921875 20.640625 15.484375 20.640625 C 13.628906 20.640625 11.863281 20.535156 10.1875 20.328125 C 8.519531 20.117188 7.101562 19.851562 5.9375 19.53125 Z M 5.9375 19.53125 "/></g></g></g><g fill="#00e87a" fill-opacity="1"><g transform="translate(554.75553, 541.232686)"><g><path d="M 15.6875 0.921875 C 13.3125 0.921875 11.3125 0.117188 9.6875 -1.484375 C 8.0625 -3.085938 7.25 -5.078125 7.25 -7.453125 C 7.25 -9.785156 8.0625 -11.753906 9.6875 -13.359375 C 11.3125 -14.972656 13.3125 -15.78125 15.6875 -15.78125 C 18.019531 -15.78125 20 -14.972656 21.625 -13.359375 C 23.25 -11.753906 24.0625 -9.785156 24.0625 -7.453125 C 24.0625 -5.078125 23.25 -3.085938 21.625 -1.484375 C 20 0.117188 18.019531 0.921875 15.6875 0.921875 Z M 15.6875 0.921875 "/></g></g></g></svg>